<svg id="diagramm" xmlns="http://www.w3.org/2000/svg" xmlns:xlink="http://www.w3.org/1999/xlink" viewBox="0 0 520 520" enable-background="new 0 0 520 520"><style>.st0{fill:none}.st1,.st2{fill:#231f20;filter:url(#AI_GaussianBlur_01_RPD)}.st2{filter:url(#AI_GaussianBlur_02_RPD)}.st3{fill:#e6e7ea}.st4{fill:url(#SVGID_1_)}.st5{fill:none}.st6{fill:#efeff1}.st7{fill:url(#SVGID_2_)}.st8{fill:#f7f8f9}.st9{fill:url(#SVGID_3_)}.st10{fill:#3c6c7d}</style><filter filterUnits="objectBoundingBox" height="140%" id="AI_GaussianBlur_02_RPD" width="140%" x="-20%" y="-20%"><feGaussianBlur stdDeviation="6"/></filter><filter filterUnits="objectBoundingBox" height="140%" id="AI_GaussianBlur_01_RPD" width="140%" x="-20%" y="-20%"><feGaussianBlur stdDeviation="20"/></filter><g id="_x30_3" data-link="experience" data-isotope-filter=".projects" class="tab-link active"><path id="BlueHover03" class="st0" d="M130.147 485.164C89.142 461.497 57.04 428.34 35 390.074L259.923 260 485 390.099l-.018.033c-71.727 124.193-230.592 166.74-354.835 95.032z"/><path id="Shadow203" class="st1" d="M154.963 441.863C121.795 422.748 95.828 395.967 78 365.06L259.938 260 442 365.08l-.015.026c-58.019 100.31-186.523 134.676-287.022 76.757z" opacity=".15"/><path id="Shadow103" class="st2" d="M158.963 449.863C125.795 430.748 99.828 403.967 82 373.06L263.938 268 446 373.08l-.015.026c-58.019 100.31-186.523 134.676-287.022 76.757z" opacity=".33"/><path id="BG03" class="st3" d="M154.963 441.863C121.795 422.748 95.828 395.967 78 365.06L259.938 260 442 365.08l-.015.026c-58.019 100.31-186.523 134.676-287.022 76.757z"/><g id="Line03"><linearGradient id="SVGID_1_" gradientUnits="userSpaceOnUse" x1="200.488" y1="468.147" x2="305.496" y2="286.269"><stop offset="0" stop-color="#f7f7f8"/><stop offset="1" stop-color="#e6e7ea"/></linearGradient><path class="st4" d="M259.938 261.732l180.008 103.894c-18.62 31.674-45.265 57.882-77.136 75.85-31.359 17.68-66.968 27.024-102.977 27.024-36.404 0-72.408-9.66-104.12-27.936-31.343-18.063-57.477-43.962-75.66-74.958l179.885-103.874m0-1.732L78 365.06c17.828 30.907 43.795 57.688 76.963 76.803C188.056 460.935 224.183 470 259.833 470c72.614 0 143.238-37.614 182.152-104.894l.015-.026L259.937 260z"/></g><path id="TextMain03_x5F_1_x5F_" class="st5" d="M137.995 331.144C162.492 371.804 207.07 399 258 399c51.843 0 97.104-28.179 121.302-70.055"/><text id="TextMain03"><textPath xlink:href="#TextMain03_x5F_1_x5F_" startOffset="50%" text-anchor="middle"> <tspan class="st10">Опыт</tspan> </textPath></text><path id="TextSecond03_x5F_1_x5F_" class="st5" d="M50.543 380.796c41.418 71.736 118.929 120.012 207.716 120.012 89.482 0 167.512-49.036 208.683-121.702"/><text id="TextSecond03"><textPath xlink:href="#TextSecond03_x5F_1_x5F_" startOffset="50%" text-anchor="middle"> <tspan class="small-span">Реализованные проекты</tspan> </textPath></text></g><g id="_x30_2_1_" data-link="expert" data-isotope-filter=".books" class="tab-link"><path id="BlueHover02" class="st0" d="M520 259.948c0 47.382-12.676 91.798-34.81 130.052L260 260.178 260.167 0l.038-.001C403.685 0 520 116.383 520 259.948z"/><path id="Shadow202" class="st1" d="M470 264.958c0 38.27-10.239 74.145-28.116 105.042L260 265.143l.135-210.142.03-.001C376.054 55 470 149.001 470 264.958z" opacity=".15"/><path id="Shadow102" class="st2" d="M474 267.958c0 38.27-10.239 74.145-28.116 105.042L264 268.143l.135-210.142.03-.001C380.054 58 474 152.001 474 267.958z" opacity=".33"/><path id="BG02" class="st6" d="M470 259.958c0 38.27-10.239 74.145-28.116 105.042L260 260.143l.135-210.142.03-.001C376.054 50 470 144.001 470 259.958z"/><g id="Line02"><linearGradient id="SVGID_2_" gradientUnits="userSpaceOnUse" x1="410.565" y1="104.347" x2="305.462" y2="286.391"><stop offset="0" stop-color="#f7f7f8"/><stop offset="1" stop-color="#efeff1"/></linearGradient><path class="st7" d="M261.634 51.505c27.607.188 54.387 5.695 79.624 16.376 24.808 10.499 47.088 25.53 66.222 44.675 19.133 19.145 34.155 41.438 44.649 66.26 10.863 25.7 16.371 53 16.371 81.142 0 36.165-9.39 71.741-27.17 102.992L261.5 259.277l.134-207.772M260.165 50h-.03L260 260.144 441.884 365C459.76 334.103 470 298.228 470 259.958 470 144 376.054 50 260.165 50z"/></g><path id="TextMain02_x5F_1_x5F_" class="st5" d="M260 138c67.379 0 122 54.621 122 122 0 22.344-6.006 43.284-16.493 61.295"/><text id="TextMain02"><textPath xlink:href="#TextMain02_x5F_1_x5F_" startOffset="50%" text-anchor="middle"> <tspan class="st10">Экспертность</tspan> </textPath></text><path id="TextSecond02_x5F_1_x5F_" class="st5" d="M260 32.5c125.645 0 227.5 101.855 227.5 227.5 0 41.462-11.091 80.333-30.469 113.808"/><text id="TextSecond02"><textPath xlink:href="#TextSecond02_x5F_1_x5F_" startOffset="50%" text-anchor="middle"> <tspan class="small-span">Публикации, выступления и книги</tspan> </textPath></text></g><g id="_x30_1" data-link="money" class="tab-link"><path id="BlueHover01" class="st0" d="M129.878 34.866C170.868 11.174 215.625-.052 259.778 0L260 260.048 34.846 390l-.02-.032C-36.87 265.638 5.685 106.653 129.878 34.866z"/><path id="Shadow201" class="st1" d="M154.902 83.161c33.106-19.136 69.257-28.203 104.918-28.16l.18 210.038L78.144 370l-.015-.026c-57.91-100.42-23.537-228.83 76.773-286.813z" opacity=".15"/><path id="Shadow101" class="st2" d="M158.902 86.161c33.106-19.136 69.257-28.203 104.918-28.16l.18 210.038L82.144 373l-.015-.026c-57.91-100.42-23.537-228.83 76.773-286.813z" opacity=".33"/><path id="BG01" class="st8" d="M154.902 78.161c33.106-19.136 69.257-28.203 104.918-28.16l.18 210.038L78.144 365l-.015-.026c-57.91-100.42-23.537-228.83 76.773-286.813z"/><g id="Line01"><linearGradient id="SVGID_3_" gradientUnits="userSpaceOnUse" x1="259.952" y1="50.076" x2="78.134" y2="364.994"><stop offset="0" stop-color="#fff"/><stop offset="1" stop-color="#efeff1"/></linearGradient><path class="st9" d="M258.322 51.504l.177 207.669L78.7 362.948c-13.632-24.015-22.251-49.977-25.622-77.184-3.315-26.747-1.446-53.57 5.555-79.723 7-26.153 18.78-50.317 35.01-71.822 16.802-22.264 37.666-40.687 62.01-54.76 31.281-18.08 66.754-27.736 102.67-27.955M259.574 50c-35.581 0-71.643 9.07-104.672 28.161-100.31 57.982-134.683 186.393-76.773 286.813l.015.026L260 260.039 259.82 50h-.246z"/></g><path id="TextMain01_x5F_1_x5F_" class="st5" d="M153.858 321.192C143.764 303.43 138 282.889 138 261c0-67.379 54.621-122 122-122"/><text id="TextMain01"><textPath xlink:href="#TextMain01_x5F_1_x5F_" startOffset="50%" text-anchor="middle"> <tspan class="st10">Деньги</tspan> </textPath></text><path id="TextSecond01_x5F_1_x5F_" class="st5" d="M61.663 374.015C42.475 340.66 31.5 301.981 31.5 260.74c0-125.645 101.855-227.5 227.5-227.5"/><text id="TextSecond01"><textPath xlink:href="#TextSecond01_x5F_1_x5F_" startOffset="50%" text-anchor="middle"> <tspan class="small-span">Гибкая система финансирования</tspan> </textPath></text></g></svg>