<svg version="1.1" id="diagramm" xmlns="http://www.w3.org/2000/svg" xmlns:xlink="http://www.w3.org/1999/xlink" x="0px" y="0px"
	 viewBox="0 0 520 520" style="enable-background:new 0 0 520 520;" xml:space="preserve">
<style type="text/css">
	.st0{fill:none;}
	.st1{fill:#231F20;filter:url(#AI_GaussianBlur_01_RPD);}
	.st2{fill:#231F20;filter:url(#AI_GaussianBlur_02_RPD);}
	.st3{fill:#E6E7EA;}
	.st4{fill:url(#SVGID_1_);}
	.st5{fill:none;}
	.st6{fill:#EFEFF1;}
	.st7{fill:url(#SVGID_2_);}
	.st8{fill:#F7F8F9;}
	.st9{fill:url(#SVGID_3_);}
	.st10{fill:#3C6C7D;}
</style>
<filter  filterUnits="objectBoundingBox" height="140%" id="AI_GaussianBlur_02_RPD" width="140%" x="-20%" y="-20%">
	<feGaussianBlur  stdDeviation="6"></feGaussianBlur>
</filter>
<filter  filterUnits="objectBoundingBox" height="140%" id="AI_GaussianBlur_01_RPD" width="140%" x="-20%" y="-20%">
	<feGaussianBlur  stdDeviation="20"></feGaussianBlur>
</filter>
<g id="_x30_3" data-link='experience' class='tab-link active'>
	<path id="BlueHover03" class="st0" d="M130.14688,485.16397C89.14192,461.49728,57.04002,428.3396,35,390.07358L259.92273,260
		L485,390.09903c-0.00632,0.01089-0.01212,0.02188-0.01843,0.03278C413.25519,514.32501,254.3902,556.87238,130.14688,485.16397z"/>
	<path id="Shadow203" class="st1" d="M154.96326,441.86319C121.7948,422.7478,95.82793,395.96658,78,365.05945L259.9375,260
		L442,365.07999c-0.0051,0.00879-0.0098,0.01767-0.01489,0.02646C383.96643,465.41638,255.4623,499.78152,154.96326,441.86319z" opacity="0.15"/>
	<path id="Shadow103" class="st2" d="M158.96326,449.86319C125.7948,430.7478,99.82793,403.96658,82,373.05945L263.9375,268
		L446,373.07999c-0.0051,0.00879-0.0098,0.01767-0.01489,0.02646C387.96643,473.41638,259.46231,507.78152,158.96326,449.86319z" opacity="0.33"/>
	<path id="BG03" class="st3" d="M154.96326,441.86319C121.7948,422.7478,95.82793,395.96658,78,365.05945L259.9375,260
		L442,365.07999c-0.0051,0.00879-0.0098,0.01767-0.01489,0.02646C383.96643,465.41638,255.4623,499.78152,154.96326,441.86319z"/>
	<g id="Line03">
		<linearGradient id="SVGID_1_" gradientUnits="userSpaceOnUse" x1="200.48837" y1="468.14722" x2="305.4957" y2="286.2692">
			<stop  offset="0" style="stop-color:#F7F7F8"/>
			<stop  offset="1" style="stop-color:#E6E7EA"/>
		</linearGradient>
		<path class="st4" d="M259.93771,261.73203l180.00793,103.8942c-18.6192,31.67395-45.26428,57.88193-77.1358,75.85013
			C331.45129,459.15533,295.8425,468.5,259.8331,468.5c-36.4039,0-72.40829-9.66025-104.12085-27.9364
			c-31.34248-18.06308-57.47632-43.96173-75.65901-74.95764L259.93771,261.73203 M259.9375,260L78,365.05945
			c17.82795,30.90714,43.7948,57.68835,76.96326,76.80374C188.05605,460.93481,224.1837,470,259.8331,470
			c72.61377,0,143.23801-37.61414,182.15201-104.89355c0.0051-0.00879,0.0098-0.01764,0.01489-0.02646L259.9375,260L259.9375,260z"
			/>
	</g>
	<path id="TextMain03_x5F_1_x5F_" class="st5" d="M137.99506,331.14352C162.49194,371.80469,207.07007,399,258,399
		c51.8425,0,97.10355-28.17862,121.30237-70.05511"/>
	<text id="TextMain03">	<textPath  xlink:href="#TextMain03_x5F_1_x5F_" startOffset="50%" text-anchor="middle">
<tspan  class="st10" style="">Опыт</tspan>	</textPath>
</text>
	<path id="TextSecond03_x5F_1_x5F_" class="st5" d="M50.5427,380.79626c41.41802,71.73526,118.92924,120.01169,207.716,120.01169
		c89.48236,0,167.51181-49.03583,208.6828-121.702"/>
	<text id="TextSecond03">	<textPath  xlink:href="#TextSecond03_x5F_1_x5F_" startOffset="50%" text-anchor="middle">
<tspan class='small-span' >Реализованные проекты</tspan>	</textPath>
</text>
</g>
<g id="_x30_2_1_" data-link='expert' class='tab-link'>
	<path id="BlueHover02" class="st0" d="M520,259.94778C520,307.3298,507.32352,351.74643,485.18918,390L260,260.17764
		l0.16718-260.17703c0.0126,0,0.02509-0.00062,0.03757-0.00062C403.68561,0,520,116.38268,520,259.94778z"/>
	<path id="Shadow202" class="st1" d="M470,264.95782c0,38.27011-10.23868,74.14505-28.11642,105.04218L260,265.14349
		l0.13501-210.14299c0.01019,0,0.02029-0.0005,0.03036-0.0005C376.05377,55,470,149.0014,470,264.95782z" opacity="0.15"/>
	<path id="Shadow102" class="st2" d="M474,267.95782c0,38.27011-10.23868,74.14505-28.11642,105.04218L264,268.14349
		l0.13501-210.14299c0.01019,0,0.02029-0.0005,0.03036-0.0005C380.05377,58,474,152.0014,474,267.95782z" opacity="0.33"/>
	<path id="BG02" class="st6" d="M470,259.95782c0,38.27011-10.23868,74.14505-28.11642,105.04218L260,260.14349l0.13501-210.14299
		c0.01019,0,0.02029-0.0005,0.03036-0.0005C376.05377,50,470,144.0014,470,259.95782z"/>
	<g id="Line02">
		<linearGradient id="SVGID_2_" gradientUnits="userSpaceOnUse" x1="410.56461" y1="104.3475" x2="305.46182" y2="286.3909">
			<stop  offset="0" style="stop-color:#F7F7F8"/>
			<stop  offset="1" style="stop-color:#EFEFF1"/>
		</linearGradient>
		<path class="st7" d="M261.63403,51.50502c27.6073,0.18836,54.38712,5.69539,79.62381,16.3759
			c24.80811,10.49912,47.08844,25.52987,66.22205,44.67471c19.13361,19.14487,34.15561,41.43838,44.64862,66.26121
			C462.99182,204.51567,468.5,231.81546,468.5,259.95782c0,36.16525-9.3895,71.74158-27.16943,102.99194L261.50055,259.27719
			L261.63403,51.50502 M260.16537,50c-0.01007,0-0.02017,0.0005-0.03036,0.0005L260,260.14349L441.88358,365
			C459.76132,334.10287,470,298.22791,470,259.95782C470,144.00142,376.0538,50,260.16537,50L260.16537,50z"/>
	</g>
	<path id="TextMain02_x5F_1_x5F_" class="st5" d="M260,138c67.37875,0,122,54.62126,122,122
		c0,22.34357-6.0065,43.28424-16.49289,61.29544"/>
	<text id="TextMain02">	<textPath  xlink:href="#TextMain02_x5F_1_x5F_" startOffset="50%" text-anchor="middle">
<tspan  class="st10" style="">Экспертность</tspan>	</textPath>
</text>
	<path id="TextSecond02_x5F_1_x5F_" class="st5" d="M260,32.5c125.64478,0,227.5,101.85522,227.5,227.5
		c0,41.46158-11.0914,80.33261-30.46896,113.80792"/>
	<text id="TextSecond02">	<textPath  xlink:href="#TextSecond02_x5F_1_x5F_" startOffset="50%" text-anchor="middle">
<tspan class='small-span' >Публикации, выступления и книги</tspan>	</textPath>
</text>
</g>
<g id="_x30_1" data-link='money' class='tab-link'>
	<path id="BlueHover01" class="st0" d="M129.87849,34.86609c40.98857-23.69245,85.74658-34.91787,129.89906-34.86591L260,260.0477
		L34.84552,390c-0.00618-0.01089-0.01298-0.02139-0.01915-0.03241C-36.87148,265.63782,5.68484,106.65346,129.87849,34.86609z"/>
	<path id="Shadow201" class="st1" d="M154.90186,83.16107c33.10616-19.13622,69.25685-28.2029,104.91849-28.16093L260,265.03851
		L78.14445,370c-0.00499-0.00879-0.01048-0.01727-0.01547-0.02618C20.21919,269.55362,54.5916,141.14317,154.90186,83.16107z" opacity="0.15"/>
	<path id="Shadow101" class="st2" d="M158.90186,86.16107c33.10616-19.13622,69.25685-28.2029,104.91849-28.16093L264,268.03851
		L82.14445,373c-0.00499-0.00879-0.01048-0.01727-0.01547-0.02618C24.21919,272.55362,58.5916,144.14317,158.90186,86.16107z" opacity="0.33"/>
	<path id="BG01" class="st8" d="M154.90186,78.16107c33.10616-19.13621,69.25685-28.2029,104.91849-28.16093L260,260.03851
		L78.14445,365c-0.00499-0.00879-0.01048-0.01727-0.01547-0.02618C20.21919,264.55362,54.5916,136.14317,154.90186,78.16107z"/>
	<g id="Line01">
		<linearGradient id="SVGID_3_" gradientUnits="userSpaceOnUse" x1="259.95166" y1="50.07595" x2="78.13375" y2="364.9938">
			<stop  offset="0" style="stop-color:#FFFFFF"/>
			<stop  offset="1" style="stop-color:#EFEFF1"/>
		</linearGradient>
		<path class="st9" d="M258.32162,51.50385l0.17764,207.66895L78.69832,362.94843
			c-13.63119-24.01562-22.25046-49.97708-25.62181-77.18457c-3.31429-26.74713-1.44516-53.56976,5.55538-79.72284
			c7.00054-26.153,18.77942-50.31746,35.00954-71.82225c16.80271-22.26346,37.66626-40.68704,62.01109-54.75905
			C186.93349,61.37852,222.40645,51.72333,258.32162,51.50385 M259.57394,49.99999
			c-35.58115,0.0003-71.64273,9.06924-104.6721,28.16106C54.59159,136.14317,20.21917,264.55365,78.12897,364.97382
			c0.005,0.00891,0.0105,0.0174,0.0155,0.02618L260,260.03851l-0.17966-210.03838
			C259.73764,50.00004,259.65668,49.99999,259.57394,49.99999L259.57394,49.99999z"/>
	</g>
	<path id="TextMain01_x5F_1_x5F_" class="st5" d="M153.85793,321.19162C143.76439,303.43091,138,282.88864,138,261
		c0-67.37874,54.62126-122,122-122"/>
	<text id="TextMain01">	<textPath  xlink:href="#TextMain01_x5F_1_x5F_" startOffset="50%" text-anchor="middle">
<tspan  class="st10" style="">Деньги</tspan>	</textPath>
</text>
	<path id="TextSecond01_x5F_1_x5F_" class="st5" d="M61.66254,374.01547C42.47451,340.6604,31.5,301.98108,31.5,260.73856
		c0-125.64478,101.85522-227.5,227.5-227.5"/>
	<text id="TextSecond01">	<textPath  xlink:href="#TextSecond01_x5F_1_x5F_" startOffset="50%" text-anchor="middle">
<tspan class='small-span' >Гибкая система финансирования</tspan>	</textPath>
</text>
</g>
</svg>
